<svg xmlns="http://www.w3.org/2000/svg" viewBox="0 0 272.074 272.074"><path d="M97.739 233.779c-7.731 0-14.994-3.014-20.45-8.471L7.706 155.661a28.739 28.739 0 0 1-2.847-3.605c-.373-.553-.701-1.176-1.022-1.8l-.488-.9c-.418-.733-.823-1.478-1.15-2.275s-.572-1.626-.803-2.468l-.244-.816a16.932 16.932 0 0 1-.585-2.108 29.46 29.46 0 0 1-.566-5.604c0-1.902.193-3.811.566-5.707.129-.662.328-1.33.553-1.992l.283-.951c.231-.823.469-1.632.797-2.429.341-.816.733-1.536 1.138-2.256l.469-.88c.328-.643.662-1.279 1.073-1.889a29.193 29.193 0 0 1 3.31-4.107l.283-.289 68.825-68.819c5.463-5.463 12.725-8.471 20.45-8.471 7.731 0 14.994 3.008 20.45 8.477 5.463 5.456 8.471 12.719 8.471 20.45 0 7.725-3.008 14.987-8.471 20.45L98.75 107.12h144.405c15.945 0 28.921 12.976 28.921 28.921s-12.976 28.921-28.921 28.921H98.742l19.454 19.454c5.463 5.463 8.471 12.719 8.471 20.45s-3.008 14.987-8.471 20.45c-5.469 5.456-12.732 8.463-20.457 8.463zm-79.808-86.004l68.452 68.439c6.067 6.067 16.646 6.08 22.719 0a15.978 15.978 0 0 0 4.704-11.363c0-4.293-1.671-8.323-4.704-11.363l-41.395-41.395h175.44c8.863 0 16.067-7.204 16.067-16.067 0-8.856-7.204-16.067-16.067-16.067H67.707l41.395-41.389c3.033-3.033 4.704-7.07 4.704-11.363s-1.671-8.329-4.704-11.363c-6.061-6.067-16.652-6.073-22.719 0l-68.819 68.825a16.143 16.143 0 0 0-2.005 2.449l-1.054 1.973c-.154.27-.315.533-.437.816-.109.27-.186.611-.283.945l-.476 1.575c-.353 1.523-.463 2.584-.463 3.605 0 1.054.116 2.108.321 3.149l.623 2.044c.084.321.154.643.283.945s.296.566.443.835l.791 1.472c.81 1.317 1.452 2.082 2.14 2.796l.484.502z" fill="#efca8a"/></svg>