<svg xmlns="http://www.w3.org/2000/svg" viewBox="0 0 512 512"><path d="M256 0C115.041 0 0 115.049 0 256c0 140.958 115.049 256 256 256 140.958 0 256-115.049 256-256C512 115.041 396.951 0 256 0zm-76.362 43.289c-14.631 18.602-25.864 40.779-34.271 62.906-15.649-4.188-30.303-9.279-43.634-15.191C123.98 70.19 150.42 53.81 179.638 43.289zm-99.376 70.786c16.706 8.178 35.478 15.1 55.72 20.612-9.21 32.565-14.609 68.722-15.746 106.313H30.51c3.154-47.889 21.287-91.746 49.752-126.925zM30.51 271h89.726c1.137 37.591 6.536 73.748 15.746 106.313-20.242 5.512-39.015 12.434-55.72 20.612C51.797 362.746 33.664 318.889 30.51 271zm71.223 149.995c13.331-5.912 27.985-11.002 43.634-15.191 8.405 22.123 19.638 44.301 34.271 62.906-29.218-10.521-55.657-26.901-77.905-47.715zM241 479.454c-31.316-10.526-53.597-49.048-66.032-80.275 21.003-3.85 43.235-6.21 66.032-6.932v87.207zm0-117.22c-26.142.787-51.697 3.614-75.785 8.295-8.704-30.253-13.835-64.123-14.967-99.529H241v91.234zM241 241h-90.752c1.133-35.406 6.264-69.276 14.967-99.529 24.088 4.681 49.643 7.508 75.785 8.295V241zm0-121.247c-22.797-.722-45.029-3.082-66.032-6.932 12.406-31.153 34.71-69.746 66.032-80.275v87.207zM481.49 241h-89.726c-1.137-37.591-6.536-73.748-15.746-106.313 20.242-5.512 39.015-12.434 55.72-20.612 28.466 35.179 46.599 79.036 49.752 126.925zM410.267 91.004c-13.331 5.912-27.985 11.003-43.634 15.191-8.405-22.121-19.637-44.301-34.271-62.906 29.218 10.521 55.657 26.901 77.905 47.715zM271 32.546c31.316 10.527 53.597 49.048 66.032 80.275-21.003 3.85-43.235 6.21-66.032 6.932V32.546zm0 117.22c26.142-.787 51.697-3.614 75.785-8.295 8.704 30.253 13.835 64.123 14.967 99.529H271v-91.234zm0 121.134h90.752c-1.133 35.406-6.264 69.376-14.967 99.629-24.088-4.681-49.643-7.508-75.785-8.295V270.9zm0 208.554v-87.207c22.797.722 45.029 3.082 66.032 6.932-12.406 31.153-34.71 69.746-66.032 80.275zm61.362-10.743c14.631-18.603 25.864-40.779 34.271-62.906 15.649 4.188 30.303 9.279 43.634 15.191-22.247 20.814-48.687 37.194-77.905 47.715zm99.376-70.786c-16.706-8.178-35.478-15.1-55.72-20.612 9.21-32.565 14.609-68.822 15.746-106.413h89.726c-3.154 47.889-21.287 91.846-49.752 127.025z" fill="#efca8a"/></svg>