<svg xmlns="http://www.w3.org/2000/svg" viewBox="0 0 332.589 332.589"><path d="M294.034 45.785H38.561C17.295 45.785 0 63.079 0 84.346v163.896c0 21.266 17.295 38.561 38.561 38.561h255.467c21.266 0 38.561-17.295 38.561-38.561V84.339c.006-21.26-17.295-38.554-38.555-38.554zm0 12.853c1.767 0 3.49.18 5.161.527.54.109 1.028.334 1.555.476 1.105.302 2.224.578 3.265 1.015.566.238 1.054.591 1.607.868.932.476 1.896.919 2.764 1.497.501.347.932.784 1.408 1.17.816.636 1.658 1.234 2.397 1.973.424.418.752.932 1.144 1.388.688.784 1.407 1.542 1.999 2.41.353.514.591 1.105.906 1.645.514.893 1.067 1.755 1.472 2.712.263.611.392 1.279.604 1.922.328.951.688 1.889.906 2.886.148.713.148 1.478.238 2.217.116.958.276 1.896.289 2.886l-121.917 74.526h-.013l-31.53 19.287-31.53-19.287h-.006L12.867 84.224c.006-.938.18-1.838.276-2.757.096-.784.096-1.587.251-2.346.18-.893.521-1.716.797-2.564.238-.746.405-1.53.707-2.249.341-.803.823-1.517 1.234-2.275.386-.688.694-1.427 1.138-2.076.482-.707 1.086-1.324 1.639-1.979.501-.611.945-1.26 1.504-1.819.598-.598 1.298-1.073 1.954-1.613.623-.501 1.189-1.073 1.851-1.517.707-.482 1.504-.823 2.269-1.228.694-.379 1.356-.823 2.095-1.138.945-.405 1.973-.643 2.969-.925.623-.18 1.208-.443 1.845-.572a25.347 25.347 0 0 1 5.167-.527c-.002-.001 255.471-.001 255.471-.001zm-281.18 40.65l109.584 67-109.584 67.006V99.288zm25.707 174.656c-1.767 0-3.496-.18-5.167-.521-.784-.161-1.504-.469-2.269-.701-.855-.257-1.735-.45-2.545-.79-.977-.411-1.864-.977-2.783-1.504-.514-.302-1.08-.527-1.575-.861-.887-.598-1.665-1.324-2.468-2.024-.437-.379-.932-.694-1.337-1.105-.726-.72-1.324-1.555-1.96-2.359-.386-.482-.835-.919-1.189-1.433-.521-.765-.9-1.626-1.337-2.442-.341-.649-.752-1.24-1.041-1.922-.328-.765-.501-1.594-.752-2.397-.257-.803-.578-1.581-.752-2.416-.154-.765-.161-1.581-.251-2.365-.09-.925-.263-1.812-.27-2.751l121.891-74.532 31.53 19.281 31.53-19.281 121.911 74.532c-.013.938-.174 1.825-.276 2.744-.09.784-.103 1.6-.251 2.365-.174.835-.501 1.613-.752 2.416-.251.803-.424 1.632-.752 2.397-.289.675-.701 1.273-1.041 1.922-.437.816-.816 1.677-1.343 2.442-.353.514-.803.945-1.183 1.433-.643.803-1.228 1.639-1.96 2.359-.411.405-.906.726-1.343 1.105-.803.701-1.581 1.433-2.461 2.024-.501.334-1.067.559-1.581.861-.919.527-1.793 1.093-2.776 1.504-.816.341-1.697.533-2.545.791-.765.231-1.478.54-2.275.701a25.717 25.717 0 0 1-5.161.521H38.561v.006zm281.18-40.65l-109.597-67.006 109.597-67.006v134.012z" fill="#efca8a"/></svg>