<svg xmlns="http://www.w3.org/2000/svg" viewBox="0 0 333.244 333.244"><path d="M166.985 333.244h-.739c-11.176 0-19.293-9.293-20.18-10.354C97.055 264.188 44.773 195.781 44.773 126.583 44.773 56.788 99.426 0 166.612 0c67.193 0 121.859 56.781 121.859 126.583 0 69.256-52.289 137.643-101.3 196.301v-.006s-8.399 10.366-20.186 10.366zm-.373-320.39c-60.097 0-108.986 51.016-108.986 113.729 0 64.898 50.74 131.101 98.298 188.062 1.35 1.568 5.919 5.752 10.321 5.752h.739c4.383 0 9.036-4.261 10.321-5.758 47.559-56.922 98.305-123.106 98.305-188.056.008-62.713-48.894-113.729-108.998-113.729zm.02 186.352c-43.657 0-79.179-35.515-79.179-79.172s35.521-79.172 79.179-79.172c43.651 0 79.159 35.515 79.159 79.172s-35.508 79.172-79.159 79.172zm0-145.491c-36.569 0-66.325 29.75-66.325 66.318s29.756 66.319 66.325 66.319c36.562 0 66.306-29.75 66.306-66.319s-29.744-66.318-66.306-66.318z" fill="#efca8a"/></svg>