<svg xmlns="http://www.w3.org/2000/svg" width="612" height="612"><g fill="#efca8a"><path d="M251.242 419.229c-6.85 11.15-10.515 23.428-10.515 36.346 0 13.515 3.87 25.657 10.515 36.34 23.991 38.582 85.001 38.37 109.332 0 6.92-10.906 11.111-22.524 11.111-36.34 0-13.219-3.992-24.984-11.111-36.346-24.126-38.505-85.546-38.716-109.332 0zm81.695 54.064c-6.427 9.836-15.314 14.719-27.028 14.719s-20.877-4.71-27.035-14.719c-3.454-5.614-4.806-11.714-4.806-17.719 0-6.312 1.333-12.418 4.806-18.025 5.838-9.419 15.02-14.116 27.035-14.116s20.928 4.87 27.028 14.116c3.812 5.773 5.71 11.714 5.71 18.025-.001 6.006-1.923 11.932-5.71 17.719z"/><path d="M386.705 304.188c-24.965-13.457-51.962-20.429-80.797-20.429-28.535 0-55.602 6.85-81.099 20.429-25.267 13.45-45.958 32.245-61.58 56.466-5.107 7.927-3.236 18.224 4.806 23.428 2.172 1.403 5.408 2.402 9.317 2.402 6.004 0 10.413-2.467 13.514-7.209 12.816-19.589 29.4-34.603 49.559-45.354 20.39-10.875 42.35-16.219 65.482-16.219 46.854 0 88.538 23.081 115.041 61.573 5.344 7.773 15.314 9.612 23.428 4.807 7.51-5.703 9.451-15.405 4.203-23.428-15.781-24.118-36.678-42.887-61.874-56.466z"/><path d="M433.56 217.38c-39.678-21.261-82.296-31.841-127.651-31.841s-87.744 10.451-127.658 31.841c-39.685 21.268-72.435 50.533-97.317 88.608-5.159 7.889-3.243 18.225 4.806 23.428 2.166 1.403 5.408 2.402 9.311 2.402 6.004 0 10.413-2.46 13.515-7.209 21.832-33.404 50.494-59.119 85.308-77.792 35.173-18.872 72.384-28.233 112.036-28.233 39.646 0 76.831 9.426 112.036 28.233 35.083 18.737 63.803 44.368 85.603 77.792 5.235 8.029 15.021 9.612 23.126 4.807 7.511-5.703 9.785-15.431 4.512-23.428-25.064-37.96-57.712-67.218-97.627-88.608z"/><path d="M609.277 254.329c-33.827-51.142-77.529-90.948-131.26-119.847-53.499-28.771-110.837-43.253-172.109-43.253-60.978 0-118.047 14.417-171.809 43.253-53.768 28.835-97.733 68.705-131.56 119.847-4.921 7.433-2.403 18.019 5.101 22.825 2.403 2.102 5.408 3.005 9.317 3.005 6.004 0 10.387-2.48 13.515-7.209 30.815-46.637 70.884-82.899 119.546-109.037 48.662-26.131 100.623-39.344 155.892-39.344 55.569 0 107.492 13.277 156.187 39.344 48.931 26.196 88.717 62.407 119.546 109.037 4.921 7.439 15.039 9.336 23.132 4.204 7.527-4.775 9.424-15.392 4.502-22.825z"/></g></svg>